<?xml version="1.0" standalone="no"?>
<!DOCTYPE svg PUBLIC "-//W3C//DTD SVG 1.1//EN" "http://www.w3.org/Graphics/SVG/1.1/DTD/svg11.dtd">
<svg version="1.1" xmlns="http://www.w3.org/2000/svg" viewBox="0 0 2353.26120538281 661.3749590571373" width="2353.26120538281" height="661.3749590571373"><!-- svg-source:excalidraw --><metadata></metadata><defs><style class="style-fonts">
      @font-face { font-family: Excalifont; src: url(https://esm.sh/@excalidraw/excalidraw/dist/prod/fonts/Excalifont/Excalifont-Regular-a88b72a24fb54c9f94e3b5fdaa7481c9.woff2); }</style></defs><rect x="0" y="0" width="2353.26120538281" height="661.3749590571373" fill="#ffffff"></rect><g transform="translate(628.0263400454994 88.05697621116718) rotate(0 107.39320428471547 10)"><text x="0" y="14.096" font-family="Excalifont, Xiaolai, sans-serif, Segoe UI Emoji" font-size="16px" fill="#1e1e1e" text-anchor="start" style="white-space: pre;" direction="ltr" dominant-baseline="alphabetic">LibaryItem (abstract class)</text></g><g transform="translate(675.4918996912264 124.10379776941551) rotate(0 68.92913110356312 50)"><text x="0" y="14.096" font-family="Excalifont, Xiaolai, sans-serif, Segoe UI Emoji" font-size="16px" fill="#1e1e1e" text-anchor="start" style="white-space: pre;" direction="ltr" dominant-baseline="alphabetic">title</text><text x="0" y="34.096000000000004" font-family="Excalifont, Xiaolai, sans-serif, Segoe UI Emoji" font-size="16px" fill="#1e1e1e" text-anchor="start" style="white-space: pre;" direction="ltr" dominant-baseline="alphabetic">author</text><text x="0" y="54.096000000000004" font-family="Excalifont, Xiaolai, sans-serif, Segoe UI Emoji" font-size="16px" fill="#1e1e1e" text-anchor="start" style="white-space: pre;" direction="ltr" dominant-baseline="alphabetic">itemID</text><text x="0" y="74.096" font-family="Excalifont, Xiaolai, sans-serif, Segoe UI Emoji" font-size="16px" fill="#1e1e1e" text-anchor="start" style="white-space: pre;" direction="ltr" dominant-baseline="alphabetic">Display()</text><text x="0" y="94.096" font-family="Excalifont, Xiaolai, sans-serif, Segoe UI Emoji" font-size="16px" fill="#1e1e1e" text-anchor="start" style="white-space: pre;" direction="ltr" dominant-baseline="alphabetic">CalulateLateFee()</text></g><g transform="translate(429.8057909255858 303.4474240149838) rotate(0 43.85708673100453 10)"><text x="0" y="14.096" font-family="Excalifont, Xiaolai, sans-serif, Segoe UI Emoji" font-size="16px" fill="#1e1e1e" text-anchor="start" style="white-space: pre;" direction="ltr" dominant-baseline="alphabetic">Book(child)</text></g><g transform="translate(884.4785957297678 297.4519435720931) rotate(0 58.72111566166859 10)"><text x="0" y="14.096" font-family="Excalifont, Xiaolai, sans-serif, Segoe UI Emoji" font-size="16px" fill="#1e1e1e" text-anchor="start" style="white-space: pre;" direction="ltr" dominant-baseline="alphabetic">Magazine(child)</text></g><g stroke-linecap="round"><g transform="translate(628.8396679554465 159.45302187130605) rotate(0 -46.23337519577922 55.19869923167413)"><path d="M0.91 -0.93 C-14.7 17.61, -77.74 92.77, -93.38 111.33 M-0.07 1.19 C-15.35 19.42, -75.53 91.34, -91.18 109.78" stroke="#1e1e1e" stroke-width="2" fill="none"></path></g><g transform="translate(628.8396679554465 159.45302187130605) rotate(0 -46.23337519577922 55.19869923167413)"><path d="M-82.59 86.3 C-86.92 92.37, -86.35 100.76, -91.18 109.78 M-82.59 86.3 C-85.52 93.31, -88.26 101.2, -91.18 109.78" stroke="#1e1e1e" stroke-width="2" fill="none"></path></g><g transform="translate(628.8396679554465 159.45302187130605) rotate(0 -46.23337519577922 55.19869923167413)"><path d="M-69.51 97.32 C-78.11 99.9, -81.8 104.7, -91.18 109.78 M-69.51 97.32 C-76.47 100.79, -83.33 105.2, -91.18 109.78" stroke="#1e1e1e" stroke-width="2" fill="none"></path></g></g><mask></mask><g stroke-linecap="round"><g transform="translate(847.6216609963943 150.88575357087512) rotate(0 29.0305597854466 59.852287795256)"><path d="M0.38 -0.3 C10.16 19.89, 49.02 100.94, 58.94 121.22 M-0.88 -1.51 C8.67 18.3, 47.66 99.16, 57.7 119.28" stroke="#1e1e1e" stroke-width="2" fill="none"></path></g><g transform="translate(847.6216609963943 150.88575357087512) rotate(0 29.0305597854466 59.852287795256)"><path d="M39.7 101.93 C44.96 106.5, 51.82 113.67, 57.7 119.28 M39.7 101.93 C44.9 107.2, 52.46 112.92, 57.7 119.28" stroke="#1e1e1e" stroke-width="2" fill="none"></path></g><g transform="translate(847.6216609963943 150.88575357087512) rotate(0 29.0305597854466 59.852287795256)"><path d="M55.06 94.42 C55.41 101.44, 57.35 111.01, 57.7 119.28 M55.06 94.42 C55.09 102.29, 57.46 110.56, 57.7 119.28" stroke="#1e1e1e" stroke-width="2" fill="none"></path></g></g><mask></mask><g transform="translate(458.5744528469952 349.9646368882428) rotate(0 68.92913110356312 20)"><text x="0" y="14.096" font-family="Excalifont, Xiaolai, sans-serif, Segoe UI Emoji" font-size="16px" fill="#1e1e1e" text-anchor="start" style="white-space: pre;" direction="ltr" dominant-baseline="alphabetic">Display()</text><text x="0" y="34.096000000000004" font-family="Excalifont, Xiaolai, sans-serif, Segoe UI Emoji" font-size="16px" fill="#1e1e1e" text-anchor="start" style="white-space: pre;" direction="ltr" dominant-baseline="alphabetic">CalulateLateFee()</text></g><g transform="translate(930.6775498556563 347.0874492226197) rotate(0 68.92913110356312 20)"><text x="0" y="14.096" font-family="Excalifont, Xiaolai, sans-serif, Segoe UI Emoji" font-size="16px" fill="#1e1e1e" text-anchor="start" style="white-space: pre;" direction="ltr" dominant-baseline="alphabetic">Display()</text><text x="0" y="34.096000000000004" font-family="Excalifont, Xiaolai, sans-serif, Segoe UI Emoji" font-size="16px" fill="#1e1e1e" text-anchor="start" style="white-space: pre;" direction="ltr" dominant-baseline="alphabetic">CalulateLateFee()</text></g><g transform="translate(558.8420319428452 397.45591441254516) rotate(0 39.36107690434437 10)"><text x="0" y="14.096" font-family="Excalifont, Xiaolai, sans-serif, Segoe UI Emoji" font-size="16px" fill="#1e1e1e" text-anchor="start" style="white-space: pre;" direction="ltr" dominant-baseline="alphabetic">1 unit/day</text></g><g transform="translate(1023.4419378771324 394.7908992451691) rotate(0 48.07309014897328 10)"><text x="0" y="14.096" font-family="Excalifont, Xiaolai, sans-serif, Segoe UI Emoji" font-size="16px" fill="#1e1e1e" text-anchor="start" style="white-space: pre;" direction="ltr" dominant-baseline="alphabetic">0.5 unit/day</text></g><g transform="translate(284.72802314691876 143.28827149520845) rotate(0 90.77716882328968 10)"><text x="0" y="14.096" font-family="Excalifont, Xiaolai, sans-serif, Segoe UI Emoji" font-size="16px" fill="#1e1e1e" text-anchor="start" style="white-space: pre;" direction="ltr" dominant-baseline="alphabetic">IReservable( interface)</text></g><g transform="translate(399.0857849672673 174.57834920846517) rotate(0 37.36106927494984 10)"><text x="0" y="14.096" font-family="Excalifont, Xiaolai, sans-serif, Segoe UI Emoji" font-size="16px" fill="#1e1e1e" text-anchor="start" style="white-space: pre;" direction="ltr" dominant-baseline="alphabetic">Reserve()</text></g><g transform="translate(19.824229615808918 153.68900233559464) rotate(0 88.74516351323109 10)"><text x="0" y="14.096" font-family="Excalifont, Xiaolai, sans-serif, Segoe UI Emoji" font-size="16px" fill="#1e1e1e" text-anchor="start" style="white-space: pre;" direction="ltr" dominant-baseline="alphabetic">INotifiable(interface)8</text></g><g transform="translate(140.41857699069237 185.817062145916) rotate(0 62.02512414555531 10)"><text x="0" y="14.096" font-family="Excalifont, Xiaolai, sans-serif, Segoe UI Emoji" font-size="16px" fill="#1e1e1e" text-anchor="start" style="white-space: pre;" direction="ltr" dominant-baseline="alphabetic">Message(string)</text></g><g stroke-linecap="round"><g transform="translate(190.39162979751995 229.83642606253903) rotate(0 95.68791007446146 30.933882264554242)"><path d="M-0.43 -0.72 C31.4 9.69, 159.96 51.97, 191.81 62.59 M1.54 1.52 C33.19 11.54, 159.8 50.73, 191.13 60.64" stroke="#1e1e1e" stroke-width="2" fill="none"></path></g><g transform="translate(190.39162979751995 229.83642606253903) rotate(0 95.68791007446146 30.933882264554242)"><path d="M166.16 61.79 C174.16 62.33, 185.12 59.99, 191.13 60.64 M166.16 61.79 C175.02 61.28, 184.03 60.56, 191.13 60.64" stroke="#1e1e1e" stroke-width="2" fill="none"></path></g><g transform="translate(190.39162979751995 229.83642606253903) rotate(0 95.68791007446146 30.933882264554242)"><path d="M171.26 45.47 C177.4 52, 186.48 55.67, 191.13 60.64 M171.26 45.47 C178.27 50.8, 185.44 55.94, 191.13 60.64" stroke="#1e1e1e" stroke-width="2" fill="none"></path></g></g><mask></mask><g stroke-linecap="round"><g transform="translate(430.79592925073734 215.29618046297088) rotate(0 4.460825105224558 30.02388645564563)"><path d="M-0.08 -0.69 C1.6 9, 8.99 49.41, 10.51 59.24 M-1.59 1.57 C0.01 11.96, 8.55 51.15, 10.17 60.73" stroke="#1e1e1e" stroke-width="2" fill="none"></path></g><g transform="translate(430.79592925073734 215.29618046297088) rotate(0 4.460825105224558 30.02388645564563)"><path d="M-2.75 39.33 C0.62 48.39, 5.93 53.07, 10.17 60.73 M-2.75 39.33 C-0.7 42.9, 2.72 48.08, 10.17 60.73" stroke="#1e1e1e" stroke-width="2" fill="none"></path></g><g transform="translate(430.79592925073734 215.29618046297088) rotate(0 4.460825105224558 30.02388645564563)"><path d="M14.04 36.04 C11.84 46.19, 11.56 51.97, 10.17 60.73 M14.04 36.04 C12.53 40.34, 12.36 46.21, 10.17 60.73" stroke="#1e1e1e" stroke-width="2" fill="none"></path></g></g><mask></mask><g transform="translate(1452.5029503550315 61.51934025617402) rotate(0 93.07316644291859 30)"><text x="0" y="14.096" font-family="Excalifont, Xiaolai, sans-serif, Segoe UI Emoji" font-size="16px" fill="#1e1e1e" text-anchor="start" style="white-space: pre;" direction="ltr" dominant-baseline="alphabetic">Store</text><text x="0" y="34.096000000000004" font-family="Excalifont, Xiaolai, sans-serif, Segoe UI Emoji" font-size="16px" fill="#1e1e1e" text-anchor="start" style="white-space: pre;" direction="ltr" dominant-baseline="alphabetic">    List&lt;LibaryItem&gt;</text><text x="0" y="54.096000000000004" font-family="Excalifont, Xiaolai, sans-serif, Segoe UI Emoji" font-size="16px" fill="#1e1e1e" text-anchor="start" style="white-space: pre;" direction="ltr" dominant-baseline="alphabetic">    DisplayItemDetails()</text></g><g transform="translate(462.8950564476572 430.01474868900544) rotate(0 105.21720941166859 30)"><text x="0" y="14.096" font-family="Excalifont, Xiaolai, sans-serif, Segoe UI Emoji" font-size="16px" fill="#1e1e1e" text-anchor="start" style="white-space: pre;" direction="ltr" dominant-baseline="alphabetic">Protected Message(string)</text><text x="0" y="34.096000000000004" font-family="Excalifont, Xiaolai, sans-serif, Segoe UI Emoji" font-size="16px" fill="#1e1e1e" text-anchor="start" style="white-space: pre;" direction="ltr" dominant-baseline="alphabetic">Protected Reserve()</text><text x="0" y="54.096000000000004" font-family="Excalifont, Xiaolai, sans-serif, Segoe UI Emoji" font-size="16px" fill="#1e1e1e" text-anchor="start" style="white-space: pre;" direction="ltr" dominant-baseline="alphabetic">   </text></g><g stroke-linecap="round" transform="translate(396.4368434739956 290.3988153727899) rotate(0 439.25975870046125 157.04622552069443)"><path d="M32 0 C340.62 1.06, 650.46 1.76, 846.52 0 M32 0 C274.07 2.96, 516.4 2.66, 846.52 0 M846.52 0 C865.92 0.15, 876.8 12.19, 878.52 32 M846.52 0 C867.52 -1.48, 877.45 12.22, 878.52 32 M878.52 32 C877.62 94.79, 876.65 158.64, 878.52 282.09 M878.52 32 C875.88 88.37, 876.81 145.24, 878.52 282.09 M878.52 282.09 C877.41 305.34, 866.97 312.81, 846.52 314.09 M878.52 282.09 C876.43 304.19, 866.09 315.91, 846.52 314.09 M846.52 314.09 C656.83 314.55, 467.47 314.56, 32 314.09 M846.52 314.09 C594.29 316.98, 342.89 316.63, 32 314.09 M32 314.09 C11.22 314.01, -1.77 301.62, 0 282.09 M32 314.09 C9.05 315.62, -1.77 301.82, 0 282.09 M0 282.09 C2.71 193.76, 2.98 102.36, 0 32 M0 282.09 C1.2 201.41, 2.37 120.86, 0 32 M0 32 C1.15 11.37, 10.14 -0.39, 32 0 M0 32 C-1.37 12.12, 9.68 1.84, 32 0" stroke="#1e1e1e" stroke-width="2" fill="none"></path></g><g stroke-linecap="round" transform="translate(10 10) rotate(0 680.2330662171593 320.68747952856864)"><path d="M32 0 C392.49 -0.58, 752.42 -1.89, 1328.47 0 M32 0 C529.89 -4.08, 1028.85 -4.07, 1328.47 0 M1328.47 0 C1349.64 0.57, 1362.24 9.18, 1360.47 32 M1328.47 0 C1351.41 0.48, 1360.1 12.26, 1360.47 32 M1360.47 32 C1361.97 254.74, 1361.02 476.71, 1360.47 609.37 M1360.47 32 C1362.31 162.78, 1362.54 294.13, 1360.47 609.37 M1360.47 609.37 C1362.08 632.31, 1348.55 639.75, 1328.47 641.37 M1360.47 609.37 C1359.71 629.78, 1347.59 643.23, 1328.47 641.37 M1328.47 641.37 C974.73 639.39, 620.5 638.4, 32 641.37 M1328.47 641.37 C864.72 641.59, 401.43 641.82, 32 641.37 M32 641.37 C12.14 639.75, -0.66 630.62, 0 609.37 M32 641.37 C12.2 641.45, -1.06 630.21, 0 609.37 M0 609.37 C-0.63 442.28, 0.83 274.82, 0 32 M0 609.37 C0.17 455.65, 0.21 302.33, 0 32 M0 32 C-0.18 10.83, 9.22 0.89, 32 0 M0 32 C0.85 12.43, 8.6 -1.43, 32 0" stroke="#1e1e1e" stroke-width="2" fill="none"></path></g><g transform="translate(45.87001114304235 32.58994159366904) rotate(0 53.441101623582654 10)"><text x="0" y="14.096" font-family="Excalifont, Xiaolai, sans-serif, Segoe UI Emoji" font-size="16px" fill="#e03131" text-anchor="start" style="white-space: pre;" direction="ltr" dominant-baseline="alphabetic">LibrarySystem</text></g><g transform="translate(459.46171965784106 274.52124008730084) rotate(0 78.36114556889515 10)"><text x="0" y="14.096" font-family="Excalifont, Xiaolai, sans-serif, Segoe UI Emoji" font-size="16px" fill="#e03131" text-anchor="start" style="white-space: pre;" direction="ltr" dominant-baseline="alphabetic">LibrarySystem.Items</text></g><g transform="translate(1911.9303479608402 57.53306907698749) rotate(0 215.66542871098497 30)"><text x="0" y="14.096" font-family="Excalifont, Xiaolai, sans-serif, Segoe UI Emoji" font-size="16px" fill="#1e1e1e" text-anchor="start" style="white-space: pre;" direction="ltr" dominant-baseline="alphabetic">LibraryAnalytics(partial Class)</text><text x="0" y="34.096000000000004" font-family="Excalifont, Xiaolai, sans-serif, Segoe UI Emoji" font-size="16px" fill="#1e1e1e" text-anchor="start" style="white-space: pre;" direction="ltr" dominant-baseline="alphabetic">    static TotalBorrow(get;set;)</text><text x="0" y="54.096000000000004" font-family="Excalifont, Xiaolai, sans-serif, Segoe UI Emoji" font-size="16px" fill="#1e1e1e" text-anchor="start" style="white-space: pre;" direction="ltr" dominant-baseline="alphabetic">    static DisplayAnalytics()(total borrow items return)</text></g></svg>